<svg xmlns="http://www.w3.org/2000/svg" version="1.1" xmlns:xlink="http://www.w3.org/1999/xlink" xmlns:svgjs="http://svgjs.dev/svgjs" width="2000" height="1247" viewBox="0 0 2000 1247"><g transform="matrix(1,0,0,1,-1.2121212121212466,0.5048582995951847)"><svg viewBox="0 0 396 247" data-background-color="#fafafa" preserveAspectRatio="xMidYMid meet" height="1247" width="2000" xmlns="http://www.w3.org/2000/svg" xmlns:xlink="http://www.w3.org/1999/xlink"><g id="tight-bounds" transform="matrix(1,0,0,1,0.2400000000000091,-0.09999999999999432)"><svg viewBox="0 0 395.52 247.2" height="247.2" width="395.52"><g><svg></svg></g><g><svg viewBox="0 0 395.52 247.2" height="247.2" width="395.52"><g transform="matrix(1,0,0,1,75.54432000000001,77.80024044700247)"><svg viewBox="0 0 244.43135999999996 91.59951910599504" height="91.59951910599504" width="244.43135999999996"><g><svg viewBox="0 0 405.0155974912098 151.77771772256258" height="91.59951910599504" width="244.43135999999996"><g><rect width="7.3902090489013315" height="131.78962465056085" x="263.7774569866527" y="9.994046536000866" fill="#ffffff" opacity="1" stroke-width="0" stroke="transparent" fill-opacity="1" class="rect-qz-0" data-fill-palette-color="primary" rx="1%" id="qz-0" data-palette-color="#130912"></rect></g><g transform="matrix(1,0,0,1,0,20.976515256880937)"><svg viewBox="0 0 244.43135999999998 109.82468720880071" height="109.82468720880071" width="244.43135999999998"><g id="textblocktransform"><svg viewBox="0 0 244.43135999999998 109.82468720880071" height="109.82468720880071" width="244.43135999999998" id="textblock"><g><svg viewBox="0 0 244.43135999999998 81.94859700542494" height="81.94859700542494" width="244.43135999999998"><g transform="matrix(1,0,0,1,0,0)"><svg width="244.43135999999998" viewBox="2.45 -38.85 138.24 46.35" height="81.94859700542494" data-palette-color="#130912"><path d="M2.45-28.9L2.45-28.9Q2.45-30.1 3.33-30.9 4.2-31.7 5.2-31.7L5.2-31.7Q6.2-31.7 7.05-30.9 7.9-30.1 7.9-28.9L7.9-28.9Q7.9-27.7 7.05-26.93 6.2-26.15 5.2-26.15L5.2-26.15Q4.2-26.15 3.33-26.93 2.45-27.7 2.45-28.9ZM7.25-20.9L7.25 0 3 0 3-20.9 7.25-20.9ZM11.85-10.45L11.85-10.45Q11.85-12.9 12.67-14.93 13.5-16.95 14.95-18.4 16.4-19.85 18.37-20.65 20.35-21.45 22.65-21.45L22.65-21.45Q24.2-21.45 25.42-21.08 26.65-20.7 27.52-20.18 28.4-19.65 29-19 29.6-18.35 29.9-17.85L29.9-17.85 29.9-38.85 34.2-38.85 34.2 0 29.9 0 29.9-1.55Q29.9-1.85 29.95-2.23 30-2.6 30-2.85L30-2.85Q29.5-2.25 28.82-1.68 28.15-1.1 27.25-0.6 26.35-0.1 25.17 0.2 24 0.5 22.5 0.5L22.5 0.5Q20 0.5 18.02-0.38 16.05-1.25 14.67-2.73 13.3-4.2 12.57-6.2 11.85-8.2 11.85-10.45ZM16.15-10.5L16.15-10.5Q16.15-9.05 16.67-7.8 17.2-6.55 18.1-5.65 19-4.75 20.25-4.23 21.5-3.7 23-3.7L23-3.7Q24.5-3.7 25.77-4.23 27.05-4.75 27.97-5.68 28.9-6.6 29.4-7.83 29.9-9.05 29.9-10.5L29.9-10.5Q29.9-11.95 29.4-13.18 28.9-14.4 27.97-15.3 27.05-16.2 25.77-16.73 24.5-17.25 23-17.25L23-17.25Q21.5-17.25 20.25-16.73 19-16.2 18.1-15.3 17.2-14.4 16.67-13.18 16.15-11.95 16.15-10.5ZM54.7-5.55L57.9-2.45Q56.4-1.1 54.25-0.3 52.1 0.5 49.85 0.5L49.85 0.5Q47.55 0.5 45.52-0.38 43.5-1.25 42-2.73 40.5-4.2 39.62-6.2 38.75-8.2 38.75-10.45L38.75-10.45Q38.75-12.7 39.62-14.7 40.5-16.7 42-18.2 43.5-19.7 45.47-20.58 47.45-21.45 49.7-21.45L49.7-21.45Q53.25-21.45 55.87-19.33 58.5-17.2 59.65-13.75L59.65-13.75Q58.1-13.2 56.1-12.4 54.1-11.6 51.95-10.73 49.8-9.85 47.65-9 45.5-8.15 43.65-7.45L43.65-7.45Q44.5-5.75 46.12-4.73 47.75-3.7 49.75-3.7L49.75-3.7Q51.1-3.7 52.47-4.2 53.85-4.7 54.7-5.55L54.7-5.55ZM54.3-14.75L54.3-14.75Q53.7-16 52.4-16.63 51.1-17.25 49.75-17.25L49.75-17.25Q48.3-17.25 47.07-16.7 45.85-16.15 44.95-15.23 44.05-14.3 43.52-13.1 43-11.9 43-10.65L43-10.65Q43-10.4 43.02-10.3 43.05-10.2 43.05-10.15L43.05-10.15Q44.35-10.65 45.87-11.28 47.4-11.9 48.9-12.53 50.4-13.15 51.8-13.73 53.2-14.3 54.3-14.75ZM61.89-10.25L61.89-10.25Q61.89-12.55 62.77-14.58 63.64-16.6 65.14-18.13 66.64-19.65 68.62-20.55 70.59-21.45 72.84-21.45L72.84-21.45Q74.34-21.45 75.59-21.08 76.84-20.7 77.74-20.15 78.64-19.6 79.19-19 79.74-18.4 79.94-17.95L79.94-17.95 80.14-20.9 84.24-20.9 84.24 0 79.94 0 79.94-2.65Q79.69-2.25 79.14-1.7 78.59-1.15 77.72-0.68 76.84-0.2 75.64 0.15 74.44 0.5 72.89 0.5L72.89 0.5Q70.49 0.5 68.47-0.38 66.44-1.25 64.99-2.73 63.54-4.2 62.72-6.15 61.89-8.1 61.89-10.25ZM66.19-10.5L66.19-10.5Q66.19-9.05 66.72-7.8 67.24-6.55 68.14-5.65 69.04-4.75 70.29-4.23 71.54-3.7 73.04-3.7L73.04-3.7Q74.54-3.7 75.82-4.23 77.09-4.75 78.02-5.68 78.94-6.6 79.44-7.83 79.94-9.05 79.94-10.5L79.94-10.5Q79.94-11.95 79.44-13.18 78.94-14.4 78.02-15.3 77.09-16.2 75.82-16.73 74.54-17.25 73.04-17.25L73.04-17.25Q71.54-17.25 70.29-16.73 69.04-16.2 68.14-15.3 67.24-14.4 66.72-13.18 66.19-11.95 66.19-10.5ZM84.44 7.5L84.44 7.5 84.44 2.35Q87.94 2.15 90.17-0.05 92.39-2.25 92.39-6.9L92.39-6.9 92.39-36.25 97.89-36.25 97.89-6.75Q97.89-3.4 96.89-0.8 95.89 1.8 94.09 3.63 92.29 5.45 89.82 6.43 87.34 7.4 84.44 7.5ZM102.69-10.5L102.69-10.5Q102.69-12.75 103.56-14.75 104.44-16.75 105.94-18.23 107.44-19.7 109.46-20.58 111.49-21.45 113.84-21.45L113.84-21.45Q116.19-21.45 118.21-20.58 120.24-19.7 121.71-18.23 123.19-16.75 124.01-14.75 124.84-12.75 124.84-10.5L124.84-10.5Q124.84-8.25 124.01-6.25 123.19-4.25 121.71-2.75 120.24-1.25 118.21-0.38 116.19 0.5 113.79 0.5L113.79 0.5Q111.49 0.5 109.46-0.3 107.44-1.1 105.94-2.55 104.44-4 103.56-6.03 102.69-8.05 102.69-10.5ZM106.94-10.45L106.94-10.45Q106.94-9.05 107.46-7.83 107.99-6.6 108.91-5.68 109.84-4.75 111.06-4.23 112.29-3.7 113.69-3.7L113.69-3.7Q115.09-3.7 116.34-4.23 117.59-4.75 118.51-5.68 119.44-6.6 119.99-7.83 120.54-9.05 120.54-10.45L120.54-10.45Q120.54-11.85 119.99-13.1 119.44-14.35 118.51-15.28 117.59-16.2 116.34-16.73 115.09-17.25 113.69-17.25L113.69-17.25Q112.29-17.25 111.06-16.73 109.84-16.2 108.91-15.28 107.99-14.35 107.46-13.1 106.94-11.85 106.94-10.45ZM130.84-20.85L130.84-30.1 135.09-30.1 135.09-20.85 140.69-20.85 140.69-17.05 135.09-17.05 135.09 0 130.84 0 130.84-17.05 127.09-17.05 127.09-20.85 130.84-20.85Z" opacity="1" transform="matrix(1,0,0,1,0,0)" fill="#ffffff" class="wordmark-text-0" data-fill-palette-color="primary" id="text-0"></path></svg></g></svg></g><g transform="matrix(1,0,0,1,100.925708544,101.29469399207764)"><svg viewBox="0 0 143.50565145599998 8.52999321672307" height="8.52999321672307" width="143.50565145599998"><g transform="matrix(1,0,0,1,0,0)"><svg width="143.50565145599998" viewBox="0.35 -36.85 796.53 47.35" height="8.52999321672307" data-palette-color="#130912"><path d="M25.05-13.35L25.05 0 14 0 14-13.35 0.35-34.4 13.05-34.4 19.65-22.95 19.85-22.95 26.45-34.4 38.5-34.4 25.05-13.35ZM51.3-27Q58.25-27 62.22-23.48 66.2-19.95 66.2-13.2L66.2-13.2Q66.2-6.45 62.22-2.93 58.25 0.6 51.3 0.6L51.3 0.6Q44.35 0.6 40.4-2.9 36.45-6.4 36.45-13.2L36.45-13.2Q36.45-20 40.4-23.5 44.35-27 51.3-27L51.3-27ZM51.3-20.25Q46.4-20.25 46.4-14.6L46.4-14.6 46.4-11.75Q46.4-6.15 51.3-6.15L51.3-6.15Q56.25-6.15 56.25-11.75L56.25-11.75 56.25-14.6Q56.25-20.25 51.3-20.25L51.3-20.25ZM98.3 0L90.15 0 89.5-4Q87.95-1.85 85.42-0.63 82.9 0.6 80.09 0.6L80.09 0.6Q75.5 0.6 73.2-1.95 70.9-4.5 70.9-9.3L70.9-9.3 70.9-26.4 80.84-26.4 80.84-10.5Q80.84-8.8 81.72-7.78 82.59-6.75 84.2-6.75L84.2-6.75Q86.05-6.75 87.2-7.95 88.34-9.15 88.34-10.9L88.34-10.9 88.34-26.4 98.3-26.4 98.3 0ZM120.39-27.05Q121.54-27.05 122.44-26.78 123.34-26.5 123.34-26.45L123.34-26.45 123.34-18.1 120.14-18.1Q117.04-18.1 115.67-16.5 114.29-14.9 114.29-11.75L114.29-11.75 114.29 0 104.34 0 104.34-26.4 112.49-26.4 113.14-22.4Q114.04-24.7 115.99-25.88 117.94-27.05 120.39-27.05L120.39-27.05ZM160.59-27Q165.94-27 168.84-23.5 171.74-20 171.74-13.15L171.74-13.15Q171.74-6.35 168.84-2.88 165.94 0.6 160.59 0.6L160.59 0.6Q155.99 0.6 153.19-2.4L153.19-2.4 153.19 9.85 143.24 9.85 143.24-26.4 151.34-26.4 152.19-22.65Q155.09-27 160.59-27L160.59-27ZM157.49-19.65Q155.29-19.65 154.19-18.1 153.09-16.55 153.09-14.05L153.09-14.05 153.09-12.4Q153.09-9.9 154.19-8.33 155.29-6.75 157.49-6.75L157.49-6.75Q161.79-6.75 161.79-11.9L161.79-11.9 161.79-14.55Q161.79-19.65 157.49-19.65L157.49-19.65ZM189.59-27Q195.63-27 199.44-24.98 203.24-22.95 203.24-18.4L203.24-18.4 203.24-8.1Q203.24-7.25 203.63-6.7 204.03-6.15 204.84-6.15L204.84-6.15 206.63-6.15 206.63-0.4Q206.49-0.3 205.86-0.08 205.24 0.15 204.09 0.38 202.94 0.6 201.44 0.6L201.44 0.6Q198.53 0.6 196.66-0.28 194.78-1.15 194.09-2.7L194.09-2.7Q192.19-1.2 189.84-0.3 187.48 0.6 184.34 0.6L184.34 0.6Q175.03 0.6 175.03-6.8L175.03-6.8Q175.03-10.65 177.11-12.68 179.19-14.7 183.09-15.45 186.98-16.2 193.28-16.2L193.28-16.2 193.28-17.5Q193.28-19.05 192.21-19.85 191.13-20.65 189.44-20.65L189.44-20.65Q187.88-20.65 186.76-20.1 185.63-19.55 185.63-18.35L185.63-18.35 185.63-18.15 175.84-18.15Q175.78-18.4 175.78-18.85L175.78-18.85Q175.78-22.6 179.36-24.8 182.94-27 189.59-27L189.59-27ZM193.28-11.5Q189.03-11.5 187.01-10.58 184.98-9.65 184.98-8.1L184.98-8.1Q184.98-5.6 188.38-5.6L188.38-5.6Q190.34-5.6 191.81-6.65 193.28-7.7 193.28-9.25L193.28-9.25 193.28-11.5ZM225.93-27.05Q227.08-27.05 227.98-26.78 228.88-26.5 228.88-26.45L228.88-26.45 228.88-18.1 225.68-18.1Q222.58-18.1 221.21-16.5 219.83-14.9 219.83-11.75L219.83-11.75 219.83 0 209.88 0 209.88-26.4 218.03-26.4 218.68-22.4Q219.58-24.7 221.53-25.88 223.48-27.05 225.93-27.05L225.93-27.05ZM246.58-26.4L252.18-26.4 252.18-19.65 246.58-19.65 246.58-9.6Q246.58-7.8 247.18-6.98 247.78-6.15 249.38-6.15L249.38-6.15 252.18-6.15 252.18-0.3Q250.98 0.1 249.08 0.35 247.18 0.6 245.78 0.6L245.78 0.6Q241.38 0.6 239-1 236.63-2.6 236.63-6.45L236.63-6.45 236.63-19.65 232.93-19.65 232.93-26.4 237.03-26.4 239.18-34.4 246.58-34.4 246.58-26.4ZM274.98-27Q279.58-27 281.88-24.45 284.18-21.9 284.18-17.1L284.18-17.1 284.18 0 274.23 0 274.23-15.9Q274.23-17.6 273.35-18.63 272.48-19.65 270.88-19.65L270.88-19.65Q269.03-19.65 267.88-18.45 266.73-17.25 266.73-15.5L266.73-15.5 266.73 0 256.78 0 256.78-26.4 264.93-26.4 265.58-22.4Q267.13-24.5 269.65-25.75 272.18-27 274.98-27L274.98-27ZM303.77-27Q311.02-27 314.85-23.6 318.68-20.2 318.68-13.2L318.68-13.2 318.68-11.5 298.88-11.5Q298.88-8.65 300.15-7.2 301.43-5.75 304.18-5.75L304.18-5.75Q306.68-5.75 307.85-6.8 309.02-7.85 309.02-9.6L309.02-9.6 318.68-9.6Q318.68-4.8 315.02-2.1 311.38 0.6 304.38 0.6L304.38 0.6Q297.02 0.6 292.98-2.83 288.93-6.25 288.93-13.2L288.93-13.2Q288.93-20 292.88-23.5 296.82-27 303.77-27L303.77-27ZM304.18-20.65Q299.48-20.65 298.93-16.2L298.93-16.2 308.63-16.2Q308.63-18.25 307.45-19.45 306.27-20.65 304.18-20.65L304.18-20.65ZM339.52-27.05Q340.67-27.05 341.57-26.78 342.47-26.5 342.47-26.45L342.47-26.45 342.47-18.1 339.27-18.1Q336.17-18.1 334.8-16.5 333.42-14.9 333.42-11.75L333.42-11.75 333.42 0 323.47 0 323.47-26.4 331.62-26.4 332.27-22.4Q333.17-24.7 335.12-25.88 337.07-27.05 339.52-27.05L339.52-27.05ZM373.07-36.85Q374.17-36.85 375.82-36.58 377.47-36.3 378.47-35.95L378.47-35.95 378.47-30.1 376.17-30.1Q374.57-30.1 373.97-29.5 373.37-28.9 373.37-27.45L373.37-27.45 373.37-26.4 378.47-26.4 378.47-19.65 373.37-19.65 373.37 0 363.42 0 363.42-19.65 359.72-19.65 359.72-26.4 363.42-26.4 363.42-27.5Q363.42-32.6 365.92-34.73 368.42-36.85 373.07-36.85L373.07-36.85ZM394.56-27Q401.51-27 405.49-23.48 409.46-19.95 409.46-13.2L409.46-13.2Q409.46-6.45 405.49-2.93 401.51 0.6 394.56 0.6L394.56 0.6Q387.61 0.6 383.66-2.9 379.71-6.4 379.71-13.2L379.71-13.2Q379.71-20 383.66-23.5 387.61-27 394.56-27L394.56-27ZM394.56-20.25Q389.66-20.25 389.66-14.6L389.66-14.6 389.66-11.75Q389.66-6.15 394.56-6.15L394.56-6.15Q399.51-6.15 399.51-11.75L399.51-11.75 399.51-14.6Q399.51-20.25 394.56-20.25L394.56-20.25ZM430.31-27.05Q431.46-27.05 432.36-26.78 433.26-26.5 433.26-26.45L433.26-26.45 433.26-18.1 430.06-18.1Q426.96-18.1 425.59-16.5 424.21-14.9 424.21-11.75L424.21-11.75 424.21 0 414.26 0 414.26-26.4 422.41-26.4 423.06-22.4Q423.96-24.7 425.91-25.88 427.86-27.05 430.31-27.05L430.31-27.05ZM466.76-27Q474.01-27 477.83-23.6 481.66-20.2 481.66-13.2L481.66-13.2 481.66-11.5 461.86-11.5Q461.86-8.65 463.13-7.2 464.41-5.75 467.16-5.75L467.16-5.75Q469.66-5.75 470.83-6.8 472.01-7.85 472.01-9.6L472.01-9.6 481.66-9.6Q481.66-4.8 478.01-2.1 474.36 0.6 467.36 0.6L467.36 0.6Q460.01 0.6 455.96-2.83 451.91-6.25 451.91-13.2L451.91-13.2Q451.91-20 455.86-23.5 459.81-27 466.76-27L466.76-27ZM467.16-20.65Q462.46-20.65 461.91-16.2L461.91-16.2 471.61-16.2Q471.61-18.25 470.43-19.45 469.26-20.65 467.16-20.65L467.16-20.65ZM502.6 0L492.15 0 482.15-26.4 492.85-26.4 497.7-9.95 498.05-9.95 502.9-26.4 512.7-26.4 502.6 0ZM528.05-27Q535.3-27 539.13-23.6 542.95-20.2 542.95-13.2L542.95-13.2 542.95-11.5 523.15-11.5Q523.15-8.65 524.43-7.2 525.7-5.75 528.45-5.75L528.45-5.75Q530.95-5.75 532.13-6.8 533.3-7.85 533.3-9.6L533.3-9.6 542.95-9.6Q542.95-4.8 539.3-2.1 535.65 0.6 528.65 0.6L528.65 0.6Q521.3 0.6 517.25-2.83 513.2-6.25 513.2-13.2L513.2-13.2Q513.2-20 517.15-23.5 521.1-27 528.05-27L528.05-27ZM528.45-20.65Q523.75-20.65 523.2-16.2L523.2-16.2 532.9-16.2Q532.9-18.25 531.73-19.45 530.55-20.65 528.45-20.65L528.45-20.65ZM563.8-27.05Q564.95-27.05 565.85-26.78 566.75-26.5 566.75-26.45L566.75-26.45 566.75-18.1 563.55-18.1Q560.45-18.1 559.07-16.5 557.7-14.9 557.7-11.75L557.7-11.75 557.7 0 547.75 0 547.75-26.4 555.9-26.4 556.55-22.4Q557.45-24.7 559.4-25.88 561.35-27.05 563.8-27.05L563.8-27.05ZM591-0.8Q588.95 4.75 585.97 7.63 583 10.5 577.65 10.5L577.65 10.5Q574.4 10.5 571.9 9.6L571.9 9.6 571.9 3.65 575.9 3.65Q579.65 3.65 580.35 0L580.35 0 569.85-26.4 580.55-26.4 585.6-8.85 585.95-8.85 590.6-26.4 600.4-26.4 591-0.8ZM629.84 0L621.74 0 620.89-3.75Q617.99 0.6 612.49 0.6L612.49 0.6Q607.14 0.6 604.24-2.9 601.34-6.4 601.34-13.25L601.34-13.25Q601.34-20.05 604.24-23.53 607.14-27 612.49-27L612.49-27Q617.04-27 619.89-23.95L619.89-23.95 619.89-36.25 629.84-36.25 629.84 0ZM615.59-19.65Q611.29-19.65 611.29-14.5L611.29-14.5 611.29-11.85Q611.29-6.75 615.59-6.75L615.59-6.75Q617.79-6.75 618.89-8.3 619.99-9.85 619.99-12.35L619.99-12.35 619.99-14Q619.99-16.5 618.89-18.07 617.79-19.65 615.59-19.65L615.59-19.65ZM648.94-27Q654.99-27 658.79-24.98 662.59-22.95 662.59-18.4L662.59-18.4 662.59-8.1Q662.59-7.25 662.99-6.7 663.39-6.15 664.19-6.15L664.19-6.15 665.99-6.15 665.99-0.4Q665.84-0.3 665.22-0.08 664.59 0.15 663.44 0.38 662.29 0.6 660.79 0.6L660.79 0.6Q657.89 0.6 656.02-0.28 654.14-1.15 653.44-2.7L653.44-2.7Q651.54-1.2 649.19-0.3 646.84 0.6 643.69 0.6L643.69 0.6Q634.39 0.6 634.39-6.8L634.39-6.8Q634.39-10.65 636.47-12.68 638.54-14.7 642.44-15.45 646.34-16.2 652.64-16.2L652.64-16.2 652.64-17.5Q652.64-19.05 651.57-19.85 650.49-20.65 648.79-20.65L648.79-20.65Q647.24-20.65 646.12-20.1 644.99-19.55 644.99-18.35L644.99-18.35 644.99-18.15 635.19-18.15Q635.14-18.4 635.14-18.85L635.14-18.85Q635.14-22.6 638.72-24.8 642.29-27 648.94-27L648.94-27ZM652.64-11.5Q648.39-11.5 646.37-10.58 644.34-9.65 644.34-8.1L644.34-8.1Q644.34-5.6 647.74-5.6L647.74-5.6Q649.69-5.6 651.17-6.65 652.64-7.7 652.64-9.25L652.64-9.25 652.64-11.5ZM687.39-0.8Q685.34 4.75 682.36 7.63 679.39 10.5 674.04 10.5L674.04 10.5Q670.79 10.5 668.29 9.6L668.29 9.6 668.29 3.65 672.29 3.65Q676.04 3.65 676.74 0L676.74 0 666.24-26.4 676.94-26.4 681.99-8.85 682.34-8.85 686.99-26.4 696.79-26.4 687.39-0.8ZM726.73 0L716.78 0 716.78-36.25 726.73-36.25 726.73 0ZM743.38-29.5L733.43-29.5 733.43-36.25 743.38-36.25 743.38-29.5ZM743.38 0L733.43 0 733.43-26.4 743.38-26.4 743.38 0ZM760.48-36.85Q761.58-36.85 763.23-36.58 764.88-36.3 765.88-35.95L765.88-35.95 765.88-30.1 763.58-30.1Q761.98-30.1 761.38-29.5 760.78-28.9 760.78-27.45L760.78-27.45 760.78-26.4 765.88-26.4 765.88-19.65 760.78-19.65 760.78 0 750.83 0 750.83-19.65 747.13-19.65 747.13-26.4 750.83-26.4 750.83-27.5Q750.83-32.6 753.33-34.73 755.83-36.85 760.48-36.85L760.48-36.85ZM781.98-27Q789.23-27 793.05-23.6 796.88-20.2 796.88-13.2L796.88-13.2 796.88-11.5 777.08-11.5Q777.08-8.65 778.35-7.2 779.63-5.75 782.38-5.75L782.38-5.75Q784.88-5.75 786.05-6.8 787.23-7.85 787.23-9.6L787.23-9.6 796.88-9.6Q796.88-4.8 793.23-2.1 789.58 0.6 782.58 0.6L782.58 0.6Q775.23 0.6 771.18-2.83 767.13-6.25 767.13-13.2L767.13-13.2Q767.13-20 771.08-23.5 775.03-27 781.98-27L781.98-27ZM782.38-20.65Q777.68-20.65 777.13-16.2L777.13-16.2 786.83-16.2Q786.83-18.25 785.65-19.45 784.48-20.65 782.38-20.65L782.38-20.65Z" opacity="1" transform="matrix(1,0,0,1,0,0)" fill="#ffffff" class="slogan-text-1" data-fill-palette-color="secondary" id="text-1"></path></svg></g></svg></g></svg></g></svg></g><g transform="matrix(1,0,0,1,290.5137630222067,0)"><svg viewBox="0 0 114.50183446900309 151.77771772256258" height="151.77771772256258" width="114.50183446900309"><g><svg xmlns="http://www.w3.org/2000/svg" xmlns:xlink="http://www.w3.org/1999/xlink" version="1.1" x="0" y="0" viewBox="16.051999999999996 5.000569246069014 67.89600000000002 89.99943075393098" enable-background="new 0 0 100 100" xml:space="preserve" height="151.77771772256258" width="114.50183446900309" class="icon-icon-0" data-fill-palette-color="accent" id="icon-0"><g fill="#e77917" data-fill-palette-color="accent"><g fill="#e77917" data-fill-palette-color="accent"><g fill="#e77917" data-fill-palette-color="accent"><path d="M47.137 38.496c-0.568 0-1.099-0.356-1.295-0.923-0.248-0.715 0.132-1.496 0.847-1.744l8.568-2.966c0.716-0.248 1.496 0.132 1.744 0.847 0.248 0.715-0.132 1.496-0.847 1.744l-8.568 2.966C47.437 38.472 47.286 38.496 47.137 38.496z" fill="#ffffff" data-fill-palette-color="accent"></path></g><g fill="#e77917" data-fill-palette-color="accent"><path d="M51.492 12.767c-0.747 0-1.359-0.6-1.37-1.35l-0.076-5.025c-0.011-0.757 0.593-1.38 1.35-1.391 0.754-0.019 1.38 0.593 1.391 1.35l0.076 5.025c0.011 0.757-0.593 1.38-1.35 1.391C51.506 12.767 51.499 12.767 51.492 12.767z" fill="#ffffff" data-fill-palette-color="accent"></path></g><g fill="#e77917" data-fill-palette-color="accent"><path d="M62.804 15.574c-0.233 0-0.468-0.059-0.684-0.184-0.656-0.378-0.88-1.217-0.502-1.872l2.278-3.945c0.378-0.656 1.217-0.88 1.872-0.502 0.656 0.378 0.88 1.217 0.502 1.872l-2.278 3.945C63.738 15.328 63.277 15.574 62.804 15.574z" fill="#ffffff" data-fill-palette-color="accent"></path></g><g fill="#e77917" data-fill-palette-color="accent"><path d="M70.514 23.873c-0.474 0-0.934-0.246-1.188-0.686-0.378-0.656-0.154-1.494 0.502-1.872l4.02-2.321c0.656-0.379 1.494-0.154 1.872 0.502s0.154 1.494-0.502 1.872l-4.02 2.321C70.982 23.814 70.746 23.873 70.514 23.873z" fill="#ffffff" data-fill-palette-color="accent"></path></g><g fill="#e77917" data-fill-palette-color="accent"><path d="M39.973 15.574c-0.474 0-0.935-0.246-1.188-0.686l-2.278-3.945c-0.378-0.656-0.154-1.494 0.502-1.872 0.655-0.379 1.494-0.154 1.872 0.502l2.278 3.945c0.378 0.656 0.154 1.494-0.502 1.872C40.441 15.514 40.205 15.574 39.973 15.574z" fill="#ffffff" data-fill-palette-color="accent"></path></g><g fill="#e77917" data-fill-palette-color="accent"><path d="M32.417 23.974c-0.237 0-0.476-0.061-0.695-0.19l-4.108-2.422c-0.652-0.384-0.869-1.225-0.484-1.877 0.384-0.652 1.224-0.87 1.877-0.484l4.108 2.422c0.652 0.384 0.869 1.225 0.484 1.877C33.344 23.733 32.887 23.974 32.417 23.974z" fill="#ffffff" data-fill-palette-color="accent"></path></g></g><g fill="#e77917" data-fill-palette-color="accent"><path d="M68.658 36.287c0.192-1.035 0.288-2.09 0.288-3.146 0-9.54-7.758-17.298-17.291-17.298-9.54 0-17.298 7.758-17.298 17.298 0 0.589 0.034 1.179 0.096 1.768-11.212 4.373-18.401 13.248-18.401 22.856 0 13.104 12.617 23.863 29.586 25.494l-1.604 10.157c-0.089 0.576 0.192 1.144 0.706 1.419C44.946 94.945 45.165 95 45.391 95c0.336 0 0.672-0.123 0.925-0.363l13.172-12.185c14.419-3.159 24.46-13.268 24.46-24.686C83.948 49.014 78.253 41.05 68.658 36.287zM51.655 18.585c8.025 0 14.55 6.531 14.55 14.557 0 2.426-0.61 4.832-1.761 6.949l-5.106 9.403c-0.87 1.59-1.336 3.214-1.59 4.578h-4.722V41.811l3.125-1.083c0.72-0.247 1.097-1.028 0.85-1.741-0.247-0.72-1.028-1.097-1.741-0.85l-8.574 2.968c-0.713 0.247-1.09 1.028-0.843 1.741 0.192 0.569 0.726 0.925 1.295 0.925 0.151 0 0.302-0.027 0.445-0.075l2.7-0.932v11.308h-4.729c-0.254-1.364-0.72-2.988-1.583-4.578l-5.113-9.403c-0.754-1.384-1.275-2.899-1.542-4.455-0.014-0.034-0.014-0.069-0.021-0.096-0.13-0.795-0.199-1.597-0.199-2.399C37.099 25.116 43.623 18.585 51.655 18.585zM57.467 57.444v2.611h-11.63v-2.611c0.007-0.096 0.014-0.315 0-0.631h11.63C57.453 57.135 57.46 57.348 57.467 57.444zM57.467 62.796v0.336c0 3.207-2.604 5.818-5.812 5.825-3.214-0.007-5.819-2.618-5.819-5.825v-0.336H57.467zM58.632 79.833c-0.267 0.041-0.521 0.158-0.726 0.35l-10.547 9.752 1.206-7.628c0.007-0.041 0.014-0.075 0.014-0.116l0.007-0.089c0.027-0.363-0.096-0.72-0.336-1.001-0.24-0.274-0.583-0.439-0.946-0.459-15.989-1.014-28.51-11.061-28.51-22.876 0-8.32 6.298-16.085 16.167-20.101 0.343 1.302 0.85 2.556 1.494 3.735l5.106 9.403c0.898 1.652 1.275 3.379 1.439 4.64 0 0.021 0 0.048 0.007 0.069 0 0.062 0.007 0.123 0.014 0.178 0.007 0.014 0.007 0.021 0.007 0.027 0.096 0.966 0.069 1.604 0.069 1.617v5.798c0 4.708 3.824 8.546 8.532 8.567 0 0 0.007 0 0.014 0h0.041c4.701-0.021 8.526-3.859 8.526-8.567v-5.798c0-0.014-0.034-0.637 0.062-1.59 0-0.007 0.007-0.014 0.007-0.027 0.007-0.069 0.014-0.13 0.027-0.206 0.144-1.261 0.521-3.015 1.439-4.708l5.106-9.403c0.425-0.775 0.781-1.583 1.076-2.412 8.347 4.311 13.282 11.239 13.282 18.778C81.207 67.95 71.927 77.017 58.632 79.833z" fill="#ffffff" data-fill-palette-color="accent"></path></g></g></svg></g></svg></g></svg></g></svg></g><g><path d="M245.816 0c68.262 0 123.6 55.338 123.6 123.6 0 68.262-55.338 123.6-123.6 123.6-49.829 0-92.771-29.486-112.33-71.962l2.461 0c19.401 41.209 61.304 69.732 109.869 69.732 67.031 0 121.37-54.339 121.37-121.37 0-67.031-54.339-121.37-121.37-121.37-48.565 0-90.468 28.524-109.869 69.732l-2.461 0c19.558-42.476 62.5-71.962 112.33-71.962z" fill="#ffffff" stroke="transparent" data-fill-palette-color="tertiary"></path></g></svg></g><defs></defs></svg><rect width="395.52" height="247.2" fill="none" stroke="none" visibility="hidden"></rect></g></svg></g></svg>